<svg xmlns="http://www.w3.org/2000/svg" viewBox="0 0 100 100"><defs><style>.cls-1{fill:#3769f5;}.cls-2{fill:#fff;}</style></defs><title>badge-google-whiteAsset 2</title><g id="Layer_2" data-name="Layer 2"><g id="Layer_1-2" data-name="Layer 1"><rect class="cls-1" width="100" height="100" rx="27.81"/><path class="cls-2" d="M71.16,65.3a4.66,4.66,0,0,0-1-2.49l-5.27-7.29a9.26,9.26,0,0,1-5.85,2c2.57,2.83,7.81,6.07,7.81,6.07a1.65,1.65,0,0,1,.77,1.64,47.89,47.89,0,0,1-4,19.26c-1.93,2.33-2.69,4.57-2.54,6.41h4a8,8,0,0,1,2.33-6.72c-.85-2.3.57-5.77.57-5.77C70.19,73.13,71.16,70.14,71.16,65.3Z"/><path class="cls-2" d="M80.57,62.1c0-1.53-.61-2-1.28-2.9-1.29-1.8-1.73-2.8-1.74-6V50.44c0-1.74.72-3.43,1.81-6.46,1.39-3.81.39-5.94-2.55-7.17A5.91,5.91,0,0,0,79.65,31L47,38.31a19.94,19.94,0,0,1-3.64.57c-1.52,0-1.77-.76-1.77-1.71v-16c0-1.39.15-2.7-1.83-4.16,4.45,0,6.61-3.41,6.6-7.93l-4.46,3.67V9.11L24.87,19.4a.72.72,0,0,0-.26,1.09l.65,1a1.87,1.87,0,0,0,1.49.61h9L31.44,38.38a44,44,0,0,0-1.71,10.31c0,3,1.11,8.2,5.31,8.2,3.07,0,4.86-2,6.43-4.49,0,0-.76,13.85-10.27,32.09a9.42,9.42,0,0,0-2.78,6.4h4a8.77,8.77,0,0,1,2.89-6.71,9.13,9.13,0,0,1,1.2-5.82A67,67,0,0,0,44.38,61s.89-4.63,4.91-4.63c5.63,0,10.22.53,17.11-5.12C67.26,55.43,71,61,75.24,64.1a2.73,2.73,0,0,1,1.05,2.11c0,5.31.26,11.64-2.25,18.28a8.9,8.9,0,0,0-2.37,6.4h3.67c0-4.59,2.33-6.72,2.33-6.72a13.36,13.36,0,0,1,.23-5.83C79,73.9,80.57,70,80.57,62.1Z"/><path class="cls-2" d="M36.41,69.51V65.86a4.64,4.64,0,0,1-4.55-3.23C30,61.91,29,59.84,28.42,58.46A15.86,15.86,0,0,0,23,50.63l4.39-.2s-.48-3,.65-4.79l-5.46,1.77A4.88,4.88,0,0,0,19.87,49a2.38,2.38,0,0,0,.3,3.07c9.27,10.19,10.24,13.47,10.24,13.47A6.68,6.68,0,0,0,36.41,69.51Z"/></g></g></svg>